<?xml version="1.0" standalone="no"?>
<!DOCTYPE svg PUBLIC "-//W3C//DTD SVG 20010904//EN"
 "http://www.w3.org/TR/2001/REC-SVG-20010904/DTD/svg10.dtd">
<svg version="1.0" xmlns="http://www.w3.org/2000/svg"
 width="80.000000pt" height="96.000000pt" viewBox="0 0 80.000000 96.000000"
 preserveAspectRatio="xMidYMid meet">

<g transform="translate(0.000000,96.000000) scale(0.100000,-0.100000)"
fill="#ffffff" stroke="none">
<path d="M0 480 l0 -480 400 0 400 0 0 480 0 480 -185 0 c-178 0 -185 -1 -185
-20 0 -19 7 -20 170 -20 l170 0 0 -60 0 -60 -370 0 -370 0 0 60 0 60 175 0
c168 0 175 1 175 20 0 19 -7 20 -190 20 l-190 0 0 -480z m718 93 l2 -213 -135
0 -135 0 0 -56 0 -55 56 3 56 3 18 -45 c34 -87 34 -90 7 -90 -19 0 -28 8 -36
30 l-10 30 -136 0 -136 0 -10 -30 c-8 -22 -17 -30 -36 -30 -27 0 -27 3 7 90
l18 45 56 -3 56 -3 0 55 0 56 -135 0 -135 0 0 215 0 215 313 -2 312 -3 3 -212z"/>
<path d="M300 640 l0 -60 60 0 c67 0 72 7 45 60 -15 30 -61 60 -90 60 -12 0
-15 -12 -15 -60z"/>
<path d="M202 654 c-81 -56 -61 -183 34 -214 61 -21 134 20 149 83 l7 27 -66
0 -67 0 7 60 c6 59 6 60 -17 60 -14 0 -35 -7 -47 -16z"/>
<path d="M500 635 c0 -12 16 -15 85 -15 69 0 85 3 85 15 0 12 -16 15 -85 15
-69 0 -85 -3 -85 -15z"/>
<path d="M500 560 c0 -6 35 -10 85 -10 50 0 85 4 85 10 0 6 -35 10 -85 10 -50
0 -85 -4 -85 -10z"/>
<path d="M500 480 c0 -6 33 -10 80 -10 47 0 80 4 80 10 0 6 -33 10 -80 10 -47
0 -80 -4 -80 -10z"/>
</g>
</svg>
