<svg xmlns="http://www.w3.org/2000/svg" width="577" height="450" viewBox="0 0 577 450"><defs><mask id="9ibmb" width="2.01" height="2.01" x="-1" y="-1"><path fill="#fff" d="M16.3 16.3h544.4v418.4H16.3z"/><path d="M519 433l-12.808-16H38c-11.046 0-20-8.954-20-20V63c0-11.046 8.954-20 20-20l501-25c11.046 0 20 8.954 20 20v359c0 11.046-8.954 20-20 20h-7.192z"/></mask><filter id="9ibma" width="603" height="477" x="-13" y="-13" filterUnits="userSpaceOnUse"><feOffset in="SourceGraphic" result="FeOffset1023Out"/><feGaussianBlur in="FeOffset1023Out" result="FeGaussianBlur1024Out" stdDeviation="7.720000000000001 7.720000000000001"/></filter></defs><g><g><g filter="url(#9ibma)"><path fill="none" stroke="#497aa1" stroke-opacity=".41" stroke-width="3.4" d="M519 433l-12.808-16H38c-11.046 0-20-8.954-20-20V63c0-11.046 8.954-20 20-20l501-25c11.046 0 20 8.954 20 20v359c0 11.046-8.954 20-20 20h-7.192z" mask="url(&quot;#9ibmb&quot;)"/><path fill="#497aa1" fill-opacity=".41" d="M519 433l-12.808-16H38c-11.046 0-20-8.954-20-20V63c0-11.046 8.954-20 20-20l501-25c11.046 0 20 8.954 20 20v359c0 11.046-8.954 20-20 20h-7.192z"/></g><path fill="#fff" d="M519 433l-12.808-16H38c-11.046 0-20-8.954-20-20V63c0-11.046 8.954-20 20-20l501-25c11.046 0 20 8.954 20 20v359c0 11.046-8.954 20-20 20h-7.192z"/></g></g></svg>