<svg xmlns="http://www.w3.org/2000/svg" width="113" height="153" viewBox="0 0 113 153"><g><g><path fill="#69a4d0" d="M56.5 152.994C25.299 152.994.004 127.6.004 96.278c0-29.244 22.047-53.318 50.365-56.386V26.368c0-7.285 5.883-13.191 13.14-13.191H75.77V-.006L98.546 19.78 75.771 39.566V25.2c-5.28-.136-8.66-.15-13.577-.15l.22 14.82c28.424 2.967 50.584 27.09 50.584 56.409 0 31.323-25.294 56.716-56.497 56.716z"/></g><g><path fill="#fff" d="M107.01 96.507c0 27.885-22.39 50.49-50.01 50.49-27.619 0-50.008-22.605-50.008-50.49S29.382 46.017 57 46.017c27.62 0 50.01 22.605 50.01 50.49z"/></g></g></svg>