<svg xmlns="http://www.w3.org/2000/svg" width="241" height="153" viewBox="0 0 241 153"><g><g><path fill="#a8d681" d="M-2 92S41.57 73 79 61c25.901-8.304 66-15 66-15v8s-38.464 6.632-63 13C44.053 76.849-2 92-2 92z"/></g><g><path fill="#a8d681" d="M240.998 56.722c0 29.32-22.16 53.442-50.584 56.41l-.22 14.82c4.916 0 8.298-.015 13.577-.151v-14.367l22.775 19.786-22.775 19.786v-13.183h-12.263c-7.257 0-13.14-5.906-13.14-13.19v-13.525c-28.318-3.068-50.365-27.142-50.365-56.386 0-31.323 25.295-56.716 56.498-56.716 31.202 0 56.497 25.393 56.497 56.716z"/></g><g><path fill="#fff" d="M235.01 56.493c0-27.885-22.39-50.49-50.01-50.49-27.619 0-50.009 22.605-50.009 50.49s22.39 50.49 50.01 50.49c27.62 0 50.009-22.605 50.009-50.49z"/></g></g></svg>