<svg xmlns="http://www.w3.org/2000/svg" width="217" height="165" viewBox="0 0 217 165"><defs><mask id="plnfb" width="2" height="2" x="-1" y="-1"><path fill="#fff" d="M101 0h113v153H101z"/><path d="M157.5 152.994c-31.202 0-56.496-25.393-56.496-56.716 0-29.244 22.046-53.318 50.364-56.386V26.368c0-7.285 5.883-13.19 13.14-13.19h12.263V-.007l22.775 19.786-22.775 19.786V25.2c-5.28-.136-8.66-.15-13.577-.15l.22 14.82c28.424 2.967 50.584 27.09 50.584 56.409 0 31.323-25.294 56.716-56.497 56.716z"/></mask><filter id="plnfa" width="141" height="190" x="87" y="-14" filterUnits="userSpaceOnUse"><feOffset dy="9" in="SourceGraphic" result="FeOffset1028Out"/><feGaussianBlur in="FeOffset1028Out" result="FeGaussianBlur1029Out" stdDeviation="1.6 1.6"/></filter><linearGradient id="plnfc" x1="101" x2="214" y1="49.99" y2="102.99" gradientUnits="userSpaceOnUse"><stop offset="0" stop-color="#a8d681" stop-opacity=".88"/><stop offset="1" stop-color="#2a466c" stop-opacity=".88"/></linearGradient></defs><g><g><path fill="#a8d681" d="M-1 64s43.571 19 81 31c25.901 8.304 66 15 66 15v-8s-38.464-6.632-63-13C45.053 79.151-1 64-1 64z"/></g><g><g filter="url(#plnfa)"><path fill="none" d="M157.5 152.994c-31.202 0-56.496-25.393-56.496-56.716 0-29.244 22.046-53.318 50.364-56.386V26.368c0-7.285 5.883-13.19 13.14-13.19h12.263V-.007l22.775 19.786-22.775 19.786V25.2c-5.28-.136-8.66-.15-13.577-.15l.22 14.82c28.424 2.967 50.584 27.09 50.584 56.409 0 31.323-25.294 56.716-56.497 56.716z" mask="url(&quot;#plnfb&quot;)"/><path fill="#6c93bf" fill-opacity=".35" d="M157.5 152.994c-31.202 0-56.496-25.393-56.496-56.716 0-29.244 22.046-53.318 50.364-56.386V26.368c0-7.285 5.883-13.19 13.14-13.19h12.263V-.007l22.775 19.786-22.775 19.786V25.2c-5.28-.136-8.66-.15-13.577-.15l.22 14.82c28.424 2.967 50.584 27.09 50.584 56.409 0 31.323-25.294 56.716-56.497 56.716z"/></g><path fill="#69a4d0" d="M157.5 152.994c-31.202 0-56.496-25.393-56.496-56.716 0-29.244 22.046-53.318 50.364-56.386V26.368c0-7.285 5.883-13.19 13.14-13.19h12.263V-.007l22.775 19.786-22.775 19.786V25.2c-5.28-.136-8.66-.15-13.577-.15l.22 14.82c28.424 2.967 50.584 27.09 50.584 56.409 0 31.323-25.294 56.716-56.497 56.716z"/><path fill="url(#plnfc)" d="M157.5 152.994c-31.202 0-56.496-25.393-56.496-56.716 0-29.244 22.046-53.318 50.364-56.386V26.368c0-7.285 5.883-13.19 13.14-13.19h12.263V-.007l22.775 19.786-22.775 19.786V25.2c-5.28-.136-8.66-.15-13.577-.15l.22 14.82c28.424 2.967 50.584 27.09 50.584 56.409 0 31.323-25.294 56.716-56.497 56.716z"/></g><g><path fill="#fff" d="M208.01 96.507c0 27.885-22.39 50.49-50.01 50.49-27.619 0-50.009-22.605-50.009-50.49s22.39-50.49 50.01-50.49c27.62 0 50.009 22.605 50.009 50.49z"/></g></g></svg>