<svg xmlns="http://www.w3.org/2000/svg" width="240" height="153" viewBox="0 0 240 153"><g><g><path fill="#69a4d0" d="M-1 47S42.57 66 80 78c25.901 8.304 66 15 66 15v-8s-38.464-6.632-63-13C45.053 62.15-1 47-1 47z"/></g><g><path fill="#69a4d0" d="M183.5 152.994c-31.202 0-56.497-25.393-56.497-56.716 0-29.244 22.047-53.318 50.365-56.386V26.368c0-7.285 5.883-13.191 13.14-13.191h12.263V-.006l22.775 19.786-22.775 19.786V25.2c-5.28-.136-8.66-.15-13.577-.15l.22 14.82c28.423 2.967 50.584 27.09 50.584 56.409 0 31.323-25.295 56.716-56.497 56.716z"/></g><g><path fill="#fff" d="M234.01 96.507c0 27.885-22.39 50.49-50.01 50.49-27.619 0-50.009-22.605-50.009-50.49s22.39-50.49 50.01-50.49c27.619 0 50.009 22.605 50.009 50.49z"/></g></g></svg>