<?xml version="1.0" encoding="UTF-8" standalone="no"?>
<svg
   xmlns:dc="http://purl.org/dc/elements/1.1/"
   xmlns:cc="http://creativecommons.org/ns#"
   xmlns:rdf="http://www.w3.org/1999/02/22-rdf-syntax-ns#"
   xmlns:svg="http://www.w3.org/2000/svg"
   xmlns="http://www.w3.org/2000/svg"
   xmlns:sodipodi="http://sodipodi.sourceforge.net/DTD/sodipodi-0.dtd"
   xmlns:inkscape="http://www.inkscape.org/namespaces/inkscape"
   width="343"
   height="343"
   viewBox="0 0 350 350"
   version="1.1"
   id="svg44"
   sodipodi:docname="bg-item-2.svg"
   inkscape:version="0.92.4 (5da689c313, 2019-01-14)">
  <metadata
     id="metadata48">
    <rdf:RDF>
      <cc:Work
         rdf:about="">
        <dc:format>image/svg+xml</dc:format>
        <dc:type
           rdf:resource="http://purl.org/dc/dcmitype/StillImage" />
        <dc:title></dc:title>
      </cc:Work>
    </rdf:RDF>
  </metadata>
  <sodipodi:namedview
     pagecolor="#ffffff"
     bordercolor="#666666"
     borderopacity="1"
     objecttolerance="10"
     gridtolerance="10"
     guidetolerance="10"
     inkscape:pageopacity="0"
     inkscape:pageshadow="2"
     inkscape:window-width="1366"
     inkscape:window-height="705"
     id="namedview46"
     showgrid="false"
     inkscape:zoom="1.5626822"
     inkscape:cx="175.24582"
     inkscape:cy="192.08937"
     inkscape:window-x="-8"
     inkscape:window-y="-8"
     inkscape:window-maximized="1"
     inkscape:current-layer="svg44" />
  <defs
     id="defs39">
    <linearGradient
       id="linear"
       x1="0%"
       y1="0%"
       x2="100%"
       y2="0%">
      <stop
         offset="0%"
         stop-color="#05a"
         id="stop30" />
      <stop
         offset="50%"
         stop-color="#a55"
         id="stop32" />
      <stop
         offset="100%"
         stop-color="#0a5"
         id="stop34" />
    </linearGradient>
    <style
       id="style37">
      .cls-1 {
        fill: none;
        stroke-width: 6px;
      }

      .cls-1, .cls-3 {
        stroke: url(#linear);
      }

      .cls-2 {
        fill: #486688;
        fill-rule: evenodd;
      }

      .cls-3 {
        fill: #f6f8f9;
        stroke-width: 5px;
      }
    </style>
  </defs>
  <path
     style="color:#000000;font-style:normal;font-variant:normal;font-weight:normal;font-stretch:normal;font-size:medium;line-height:normal;font-family:sans-serif;font-variant-ligatures:normal;font-variant-position:normal;font-variant-caps:normal;font-variant-numeric:normal;font-variant-alternates:normal;font-feature-settings:normal;text-indent:0;text-align:start;text-decoration:none;text-decoration-line:none;text-decoration-style:solid;text-decoration-color:#000000;letter-spacing:normal;word-spacing:normal;text-transform:none;writing-mode:lr-tb;direction:ltr;text-orientation:mixed;dominant-baseline:auto;baseline-shift:baseline;text-anchor:start;white-space:normal;shape-padding:0;clip-rule:nonzero;display:inline;overflow:visible;visibility:visible;opacity:1;isolation:auto;mix-blend-mode:normal;color-interpolation:sRGB;color-interpolation-filters:linearRGB;solid-color:#000000;solid-opacity:1;vector-effect:none;fill:#0055aa;fill-opacity:1;fill-rule:nonzero;stroke:none;stroke-width:5px;stroke-linecap:butt;stroke-linejoin:miter;stroke-miterlimit:4;stroke-dasharray:none;stroke-dashoffset:0;stroke-opacity:1;color-rendering:auto;image-rendering:auto;shape-rendering:auto;text-rendering:auto;enable-background:accumulate"
     d="m 54.735016,19.152985 c -29.041757,0 -52.4999997,23.458243 -52.4999997,52.5 v 68.738805 66.75107 64.51013 c 0,29.04176 23.4582427,52.5 52.4999997,52.5 H 242.73502 c 29.04176,0 52.5,-23.45824 52.5,-52.5 l -3.3e-4,-90.5 h 17.75424 c 2.2155,8.03546 9.52337,14 18.24609,14 10.4638,0 19,-8.5362 19,-19 0,-10.4638 -8.5362,-19 -19,-19 -10.09334,0 -18.31559,7.96427 -18.89062,17.91797 h -17.10938 l -3.3e-4,-19.96892 v -9.18367 l 3.3e-4,-74.265385 c 1.3e-4,-29.041758 -23.45824,-52.5 -52.5,-52.5 z m 0,5 H 242.73502 c 26.35824,0 47.5,21.141757 47.5,47.5 l -0.65298,83.449055 h 5.65265 l 3.3e-4,19.96939 h -5.65298 l 0.65298,96.58156 c 0.1782,26.35764 -21.14176,47.5 -47.5,47.5 H 54.735016 c -26.358243,0 -47.4999997,-21.14176 -47.4999997,-47.5 v -64.51013 h -5 v -61.22449 h 5 -5 5 V 71.652985 c 0,-26.358243 21.1417567,-47.5 47.4999997,-47.5 z M 331.23502,162.15299 c 7.7616,0 14,6.23847 14,14.00007 0,7.7616 -6.2384,13.99993 -14,13.99993 -7.7616,0 -14,-6.2384 -14,-14 0,-7.7616 6.2384,-14 14,-14 z"
     id="Эллипс_12"
     inkscape:connector-curvature="0"
     sodipodi:nodetypes="ssccssssccsssccccsssssssccsssssccccccsssssss" />
</svg>
